# xmcd
#
# Track frame offsets:
#	150
#	3992
#	22225
#	38734
#	58048
#	73400
#	87600
#	104673
#	115796
#	136252
#	150671
#	161969
#	179242
#	197840
#	216006
#	234302
#	251773
#	272135
#	287712
#	304704
#
# Disc length: 4092
#
# Revision: 1
# Processed by: cddbd v1.5.1PL0 Copyright (c) Steve Scherf et al.
# Submitted via: ExactAudioCopy v0.95a3
# Normalized: r0:TRMNUM
#
DISCID=330ffa14
DTITLE=Various Artist - UNDER PRESSURE V2
DYEAR=1900
DGENRE=TECHNO
TTITLE0=INTRO
TTITLE1=RED EYE - XI
TTITLE2=MARCO LENZI - THE LOOP OF LOVE
TTITLE3=LARS KLEIN - YODACHIGUMO
TTITLE4=MARCO BAILEY - POLE POSITION
TTITLE5=MICHAEL BURKAT - STRUGGLE
TTITLE6=DANILO VIGORITO - UNTITLED
TTITLE7=MICHAEL BURKAT and LARS KLEIN - IRRESPECTIVE
TTITLE8=OLIVER HO - THE ANCESTORS(BEN SIMS REMIX)
TTITLE9=HARDCELL and JOHAN BACTO - CREATE AND DISTORT
TTITLE10=BEN SIMS - MEMENTO EN EL TIEMPO
TTITLE11=MHONOLINK - ECHOES
TTITLE12=JEL FORD - DRACULA
TTITLE13=REDHEAD - FACE 4 A DAY
TTITLE14=MARCO BAILEY - RED LIGHT DISTRICT
TTITLE15=LARS KLEIN WOODEN MAN
TTITLE16=OXIA - DARK GROOVE
TTITLE17=CRISTIAN VARELA - EXPERIMENTAL FILTERS
TTITLE18=BANDO - UNCLE JOE
TTITLE19=LARS KLEIN - LK LOOP
EXTD=
EXTT0=
EXTT1=
EXTT2=
EXTT3=
EXTT4=
EXTT5=
EXTT6=
EXTT7=
EXTT8=
EXTT9=
EXTT10=
EXTT11=
EXTT12=
EXTT13=
EXTT14=
EXTT15=
EXTT16=
EXTT17=
EXTT18=
EXTT19=
PLAYORDER=
